<mxfile host="Electron" agent="Mozilla/5.0 (Windows NT 10.0; Win64; x64) AppleWebKit/537.36 (KHTML, like Gecko) draw.io/26.2.2 Chrome/134.0.6998.178 Electron/35.1.2 Safari/537.36" version="26.2.2">
  <diagram name="Page-1" id="JqidS-dOSWsCjEloHIh6">
    <mxGraphModel dx="1190" dy="701" grid="1" gridSize="10" guides="1" tooltips="1" connect="1" arrows="1" fold="1" page="1" pageScale="1" pageWidth="1169" pageHeight="827" math="0" shadow="0">
      <root>
        <mxCell id="0" />
        <mxCell id="1" parent="0" />
        <mxCell id="wiUsbfMSmkZRmjwuOx8V-56" value="" style="rounded=0;whiteSpace=wrap;html=1;fillColor=#E6E6E6;" vertex="1" parent="1">
          <mxGeometry x="807.5" y="230" width="5" height="60" as="geometry" />
        </mxCell>
        <mxCell id="wiUsbfMSmkZRmjwuOx8V-58" value="" style="rounded=0;whiteSpace=wrap;html=1;fillColor=#E6E6E6;" vertex="1" parent="1">
          <mxGeometry x="790.94" y="230" width="5" height="60" as="geometry" />
        </mxCell>
        <mxCell id="wiUsbfMSmkZRmjwuOx8V-60" value="" style="rounded=0;whiteSpace=wrap;html=1;fillColor=#E6E6E6;" vertex="1" parent="1">
          <mxGeometry x="775" y="230" width="5" height="60" as="geometry" />
        </mxCell>
        <mxCell id="wiUsbfMSmkZRmjwuOx8V-62" value="" style="rounded=0;whiteSpace=wrap;html=1;fillColor=#E6E6E6;" vertex="1" parent="1">
          <mxGeometry x="759.06" y="230" width="5" height="60" as="geometry" />
        </mxCell>
        <mxCell id="wiUsbfMSmkZRmjwuOx8V-64" value="" style="rounded=0;whiteSpace=wrap;html=1;fillColor=#E6E6E6;" vertex="1" parent="1">
          <mxGeometry x="743.1199999999999" y="230" width="5" height="60" as="geometry" />
        </mxCell>
        <mxCell id="wiUsbfMSmkZRmjwuOx8V-66" value="" style="rounded=0;whiteSpace=wrap;html=1;fillColor=#B3B3B3;fontColor=#333333;strokeColor=#000000;strokeWidth=3;" vertex="1" parent="1">
          <mxGeometry x="225" y="390" width="75" height="49" as="geometry" />
        </mxCell>
        <mxCell id="wiUsbfMSmkZRmjwuOx8V-4" value="" style="shape=or;whiteSpace=wrap;html=1;rotation=90;strokeWidth=3;fillColor=#000000;" vertex="1" parent="1">
          <mxGeometry x="880" y="440" width="20" height="40" as="geometry" />
        </mxCell>
        <mxCell id="wiUsbfMSmkZRmjwuOx8V-5" value="" style="shape=or;whiteSpace=wrap;html=1;rotation=90;strokeWidth=3;fillColor=#000000;" vertex="1" parent="1">
          <mxGeometry x="260" y="440" width="20" height="40" as="geometry" />
        </mxCell>
        <mxCell id="wiUsbfMSmkZRmjwuOx8V-6" value="" style="rounded=0;whiteSpace=wrap;html=1;strokeWidth=2;fillColor=#666666;" vertex="1" parent="1">
          <mxGeometry x="860" y="380" width="50" height="60" as="geometry" />
        </mxCell>
        <mxCell id="wiUsbfMSmkZRmjwuOx8V-7" value="" style="rounded=0;whiteSpace=wrap;html=1;strokeWidth=2;fillColor=#666666;" vertex="1" parent="1">
          <mxGeometry x="360" y="380" width="170" height="60" as="geometry" />
        </mxCell>
        <mxCell id="wiUsbfMSmkZRmjwuOx8V-8" value="" style="rounded=0;whiteSpace=wrap;html=1;strokeWidth=2;fillColor=#666666;" vertex="1" parent="1">
          <mxGeometry x="540" y="380" width="130" height="60" as="geometry" />
        </mxCell>
        <mxCell id="wiUsbfMSmkZRmjwuOx8V-9" value="" style="rounded=0;whiteSpace=wrap;html=1;strokeWidth=2;fillColor=#666666;" vertex="1" parent="1">
          <mxGeometry x="690" y="390" width="10" height="50" as="geometry" />
        </mxCell>
        <mxCell id="wiUsbfMSmkZRmjwuOx8V-10" value="" style="rounded=0;whiteSpace=wrap;html=1;strokeWidth=2;fillColor=#666666;" vertex="1" parent="1">
          <mxGeometry x="750" y="389" width="90" height="50" as="geometry" />
        </mxCell>
        <mxCell id="wiUsbfMSmkZRmjwuOx8V-11" value="" style="rounded=0;whiteSpace=wrap;html=1;fillColor=#FFE599;" vertex="1" parent="1">
          <mxGeometry x="370" y="350" width="10" height="30" as="geometry" />
        </mxCell>
        <mxCell id="wiUsbfMSmkZRmjwuOx8V-12" value="" style="rounded=0;whiteSpace=wrap;html=1;fillColor=#FFE599;" vertex="1" parent="1">
          <mxGeometry x="390" y="350" width="10" height="30" as="geometry" />
        </mxCell>
        <mxCell id="wiUsbfMSmkZRmjwuOx8V-13" value="" style="rounded=0;whiteSpace=wrap;html=1;fillColor=#FFE599;" vertex="1" parent="1">
          <mxGeometry x="410" y="350" width="10" height="30" as="geometry" />
        </mxCell>
        <mxCell id="wiUsbfMSmkZRmjwuOx8V-14" value="" style="rounded=0;whiteSpace=wrap;html=1;fillColor=#FFE599;" vertex="1" parent="1">
          <mxGeometry x="430" y="350" width="10" height="30" as="geometry" />
        </mxCell>
        <mxCell id="wiUsbfMSmkZRmjwuOx8V-15" value="" style="rounded=0;whiteSpace=wrap;html=1;fillColor=#FFE599;" vertex="1" parent="1">
          <mxGeometry x="470" y="350" width="10" height="30" as="geometry" />
        </mxCell>
        <mxCell id="wiUsbfMSmkZRmjwuOx8V-16" value="" style="rounded=0;whiteSpace=wrap;html=1;fillColor=#FFE599;" vertex="1" parent="1">
          <mxGeometry x="490" y="350" width="10" height="30" as="geometry" />
        </mxCell>
        <mxCell id="wiUsbfMSmkZRmjwuOx8V-17" value="" style="rounded=0;whiteSpace=wrap;html=1;fillColor=#FFE599;" vertex="1" parent="1">
          <mxGeometry x="510" y="350" width="10" height="30" as="geometry" />
        </mxCell>
        <mxCell id="wiUsbfMSmkZRmjwuOx8V-18" value="" style="rounded=0;whiteSpace=wrap;html=1;fillColor=#FFE599;" vertex="1" parent="1">
          <mxGeometry x="550" y="350" width="10" height="30" as="geometry" />
        </mxCell>
        <mxCell id="wiUsbfMSmkZRmjwuOx8V-20" value="" style="rounded=0;whiteSpace=wrap;html=1;fillColor=#FFE599;" vertex="1" parent="1">
          <mxGeometry x="450" y="350" width="10" height="30" as="geometry" />
        </mxCell>
        <mxCell id="wiUsbfMSmkZRmjwuOx8V-22" value="" style="rounded=0;whiteSpace=wrap;html=1;" vertex="1" parent="1">
          <mxGeometry x="300" y="430" width="50" height="10" as="geometry" />
        </mxCell>
        <mxCell id="wiUsbfMSmkZRmjwuOx8V-23" value="" style="rounded=0;whiteSpace=wrap;html=1;fillColor=#FFE599;" vertex="1" parent="1">
          <mxGeometry x="330" y="380" width="10" height="50" as="geometry" />
        </mxCell>
        <mxCell id="wiUsbfMSmkZRmjwuOx8V-24" value="" style="rounded=0;whiteSpace=wrap;html=1;fillColor=#FFE599;" vertex="1" parent="1">
          <mxGeometry x="310" y="380" width="10" height="50" as="geometry" />
        </mxCell>
        <mxCell id="wiUsbfMSmkZRmjwuOx8V-25" value="" style="rounded=0;whiteSpace=wrap;html=1;fillColor=#B3B3B3;fontColor=#333333;strokeColor=#000000;strokeWidth=3;" vertex="1" parent="1">
          <mxGeometry x="230" y="420" width="60" height="20" as="geometry" />
        </mxCell>
        <mxCell id="wiUsbfMSmkZRmjwuOx8V-28" value="" style="rounded=0;whiteSpace=wrap;html=1;fillColor=#FFE599;" vertex="1" parent="1">
          <mxGeometry x="570" y="350" width="10" height="30" as="geometry" />
        </mxCell>
        <mxCell id="wiUsbfMSmkZRmjwuOx8V-29" value="" style="rounded=0;whiteSpace=wrap;html=1;fillColor=#FFE599;" vertex="1" parent="1">
          <mxGeometry x="590" y="350" width="10" height="30" as="geometry" />
        </mxCell>
        <mxCell id="wiUsbfMSmkZRmjwuOx8V-30" value="" style="rounded=0;whiteSpace=wrap;html=1;fillColor=#FFE599;" vertex="1" parent="1">
          <mxGeometry x="610" y="350" width="10" height="30" as="geometry" />
        </mxCell>
        <mxCell id="wiUsbfMSmkZRmjwuOx8V-31" value="" style="rounded=0;whiteSpace=wrap;html=1;fillColor=#FFE599;" vertex="1" parent="1">
          <mxGeometry x="630" y="350" width="10" height="30" as="geometry" />
        </mxCell>
        <mxCell id="wiUsbfMSmkZRmjwuOx8V-32" value="" style="rounded=0;whiteSpace=wrap;html=1;fillColor=#FFE599;" vertex="1" parent="1">
          <mxGeometry x="650" y="350" width="10" height="30" as="geometry" />
        </mxCell>
        <mxCell id="wiUsbfMSmkZRmjwuOx8V-1" value="" style="rounded=0;whiteSpace=wrap;html=1;strokeWidth=3;fontStyle=1;fillColor=#f5f5f5;fontColor=#333333;strokeColor=#000000;" vertex="1" parent="1">
          <mxGeometry x="240" y="440" width="680" height="10" as="geometry" />
        </mxCell>
        <mxCell id="wiUsbfMSmkZRmjwuOx8V-34" value="" style="rounded=0;whiteSpace=wrap;html=1;fillColor=#FFE599;" vertex="1" parent="1">
          <mxGeometry x="890" y="350" width="10" height="30" as="geometry" />
        </mxCell>
        <mxCell id="wiUsbfMSmkZRmjwuOx8V-35" value="" style="rounded=0;whiteSpace=wrap;html=1;fillColor=#FFE599;" vertex="1" parent="1">
          <mxGeometry x="870" y="350" width="10" height="30" as="geometry" />
        </mxCell>
        <mxCell id="wiUsbfMSmkZRmjwuOx8V-36" value="" style="rounded=0;whiteSpace=wrap;html=1;strokeWidth=2;fillColor=#666666;" vertex="1" parent="1">
          <mxGeometry x="860" y="290" width="50" height="50" as="geometry" />
        </mxCell>
        <mxCell id="wiUsbfMSmkZRmjwuOx8V-37" value="" style="rounded=0;whiteSpace=wrap;html=1;strokeWidth=2;fillColor=#666666;" vertex="1" parent="1">
          <mxGeometry x="733.44" y="290" width="90" height="50" as="geometry" />
        </mxCell>
        <mxCell id="wiUsbfMSmkZRmjwuOx8V-48" value="" style="rounded=0;whiteSpace=wrap;html=1;strokeWidth=2;fillColor=#666666;" vertex="1" parent="1">
          <mxGeometry x="542" y="290" width="130" height="50" as="geometry" />
        </mxCell>
        <mxCell id="wiUsbfMSmkZRmjwuOx8V-49" value="" style="rounded=0;whiteSpace=wrap;html=1;strokeWidth=2;fillColor=#666666;" vertex="1" parent="1">
          <mxGeometry x="360" y="290" width="170" height="50" as="geometry" />
        </mxCell>
        <mxCell id="wiUsbfMSmkZRmjwuOx8V-50" value="" style="rounded=0;whiteSpace=wrap;html=1;fillColor=#6666FF;strokeColor=#000000;strokeWidth=2;" vertex="1" parent="1">
          <mxGeometry x="450" y="270" width="70" height="20" as="geometry" />
        </mxCell>
        <mxCell id="wiUsbfMSmkZRmjwuOx8V-51" value="" style="rounded=0;whiteSpace=wrap;html=1;fillColor=#000000;" vertex="1" parent="1">
          <mxGeometry x="250" y="300" width="10" height="40" as="geometry" />
        </mxCell>
        <mxCell id="wiUsbfMSmkZRmjwuOx8V-53" value="" style="rounded=0;whiteSpace=wrap;html=1;fillColor=#000000;" vertex="1" parent="1">
          <mxGeometry x="250" y="310" width="105" height="30" as="geometry" />
        </mxCell>
        <mxCell id="wiUsbfMSmkZRmjwuOx8V-52" value="" style="rounded=0;whiteSpace=wrap;html=1;fillColor=#000000;" vertex="1" parent="1">
          <mxGeometry x="350" y="310" width="5" height="30" as="geometry" />
        </mxCell>
        <mxCell id="wiUsbfMSmkZRmjwuOx8V-33" value="" style="rounded=0;whiteSpace=wrap;html=1;strokeWidth=3;fillColor=#82B366;" vertex="1" parent="1">
          <mxGeometry x="240" y="340" width="680" height="10" as="geometry" />
        </mxCell>
        <mxCell id="wiUsbfMSmkZRmjwuOx8V-57" value="" style="shape=or;whiteSpace=wrap;html=1;rotation=-90;fillColor=#EA6B66;" vertex="1" parent="1">
          <mxGeometry x="796.5600000000001" y="210" width="26.88" height="12.5" as="geometry" />
        </mxCell>
        <mxCell id="wiUsbfMSmkZRmjwuOx8V-59" value="" style="shape=or;whiteSpace=wrap;html=1;rotation=-90;fillColor=#EA6B66;" vertex="1" parent="1">
          <mxGeometry x="780.0000000000001" y="210" width="26.88" height="12.5" as="geometry" />
        </mxCell>
        <mxCell id="wiUsbfMSmkZRmjwuOx8V-61" value="" style="shape=or;whiteSpace=wrap;html=1;rotation=-90;fillColor=#EA6B66;" vertex="1" parent="1">
          <mxGeometry x="764.0600000000001" y="210" width="26.88" height="12.5" as="geometry" />
        </mxCell>
        <mxCell id="wiUsbfMSmkZRmjwuOx8V-63" value="" style="shape=or;whiteSpace=wrap;html=1;rotation=-90;fillColor=#EA6B66;" vertex="1" parent="1">
          <mxGeometry x="748.12" y="210" width="26.88" height="12.5" as="geometry" />
        </mxCell>
        <mxCell id="wiUsbfMSmkZRmjwuOx8V-65" value="" style="shape=or;whiteSpace=wrap;html=1;rotation=-90;fillColor=#EA6B66;" vertex="1" parent="1">
          <mxGeometry x="732.18" y="210" width="26.88" height="12.5" as="geometry" />
        </mxCell>
        <mxCell id="wiUsbfMSmkZRmjwuOx8V-54" value="" style="rounded=0;whiteSpace=wrap;html=1;fillColor=#f5f5f5;fontColor=#333333;strokeColor=#666666;" vertex="1" parent="1">
          <mxGeometry x="260" y="310" width="90" height="10" as="geometry" />
        </mxCell>
        <mxCell id="wiUsbfMSmkZRmjwuOx8V-67" value="&lt;font style=&quot;font-size: 18px;&quot;&gt;&lt;b style=&quot;&quot;&gt;1&lt;/b&gt;&lt;/font&gt;" style="text;html=1;align=center;verticalAlign=middle;whiteSpace=wrap;rounded=0;" vertex="1" parent="1">
          <mxGeometry x="733.59" y="180" width="24.06" height="20" as="geometry" />
        </mxCell>
        <mxCell id="wiUsbfMSmkZRmjwuOx8V-69" value="&lt;font style=&quot;font-size: 18px;&quot;&gt;&lt;b style=&quot;&quot;&gt;2&lt;/b&gt;&lt;/font&gt;" style="text;html=1;align=center;verticalAlign=middle;whiteSpace=wrap;rounded=0;" vertex="1" parent="1">
          <mxGeometry x="749.5300000000001" y="180" width="24.06" height="20" as="geometry" />
        </mxCell>
        <mxCell id="wiUsbfMSmkZRmjwuOx8V-70" value="&lt;font style=&quot;font-size: 18px;&quot;&gt;&lt;b style=&quot;&quot;&gt;3&lt;/b&gt;&lt;/font&gt;" style="text;html=1;align=center;verticalAlign=middle;whiteSpace=wrap;rounded=0;" vertex="1" parent="1">
          <mxGeometry x="766.4100000000002" y="180" width="24.06" height="20" as="geometry" />
        </mxCell>
        <mxCell id="wiUsbfMSmkZRmjwuOx8V-71" value="&lt;font style=&quot;font-size: 18px;&quot;&gt;&lt;b style=&quot;&quot;&gt;4&lt;/b&gt;&lt;/font&gt;" style="text;html=1;align=center;verticalAlign=middle;whiteSpace=wrap;rounded=0;" vertex="1" parent="1">
          <mxGeometry x="781.4100000000002" y="180" width="24.06" height="20" as="geometry" />
        </mxCell>
        <mxCell id="wiUsbfMSmkZRmjwuOx8V-72" value="&lt;font style=&quot;font-size: 18px;&quot;&gt;&lt;b style=&quot;&quot;&gt;5&lt;/b&gt;&lt;/font&gt;" style="text;html=1;align=center;verticalAlign=middle;whiteSpace=wrap;rounded=0;" vertex="1" parent="1">
          <mxGeometry x="797.9700000000001" y="180" width="24.06" height="20" as="geometry" />
        </mxCell>
        <mxCell id="wiUsbfMSmkZRmjwuOx8V-73" value="&lt;font style=&quot;font-size: 18px;&quot;&gt;&lt;b&gt;signalizační&lt;/b&gt;&lt;/font&gt;&lt;div&gt;&lt;font style=&quot;font-size: 18px;&quot;&gt;&lt;b&gt;diody&lt;/b&gt;&lt;/font&gt;&lt;/div&gt;" style="text;html=1;align=center;verticalAlign=middle;whiteSpace=wrap;rounded=0;" vertex="1" parent="1">
          <mxGeometry x="536" y="191.25" width="118" height="50" as="geometry" />
        </mxCell>
        <mxCell id="wiUsbfMSmkZRmjwuOx8V-74" value="" style="endArrow=classic;html=1;rounded=0;exitX=1;exitY=0.5;exitDx=0;exitDy=0;strokeWidth=3;" edge="1" parent="1" source="wiUsbfMSmkZRmjwuOx8V-73">
          <mxGeometry width="50" height="50" relative="1" as="geometry">
            <mxPoint x="650" y="222.5" as="sourcePoint" />
            <mxPoint x="720" y="216" as="targetPoint" />
          </mxGeometry>
        </mxCell>
      </root>
    </mxGraphModel>
  </diagram>
</mxfile>
